<?xml version="1.0" standalone="no"?>
<svg viewBox="0 0 200 200" xmlns="http://www.w3.org/2000/svg">
  <path fill="#889498" d="M27.9,-49.1C37.9,-42.6,49.1,-38.7,58.2,-30.9C67.3,-23.2,74.5,-11.6,75.9,0.9C77.4,13.3,73.3,26.6,66.4,38.3C59.6,49.9,50,60,38.5,60.6C26.9,61.2,13.5,52.4,2.4,48.2C-8.6,43.9,-17.2,44.3,-29.9,44.4C-42.7,44.5,-59.6,44.3,-65.4,36.9C-71.2,29.4,-65.9,14.7,-65.9,0C-65.8,-14.7,-71.1,-29.4,-68.1,-41.6C-65.1,-53.9,-53.8,-63.7,-41,-68.7C-28.3,-73.6,-14.2,-73.7,-2.6,-69.2C8.9,-64.7,17.9,-55.6,27.9,-49.1Z" transform="translate(100 100)" />
</svg>
